# xmcd
#
# Track frame offsets:
#	150
#	11761
#	22504
#	33015
#	43215
#	54373
#	64848
#	78701
#	88289
#	100942
#	112920
#	125684
#	137459
#	148593
#	159953
#	170727
#	182699
#	192548
#	204277
#	216167
#
# Disc length: 3008 seconds
#
# Revision: 1
# Processed by: cddbd v1.4PL0 Copyright (c) Steve Scherf et al.
# Submitted via: audiograbber 1.80.04
#
DISCID=120bbe14
DTITLE=Patsy Cline - The 20 Most Requested
DYEAR=2000
DGENRE=Country
TTITLE0=Walking after midnight
TTITLE1=Honky Tonk Merry-Go-Round
TTITLE2=Lovesick Blues
TTITLE3=Three cigarettes in an ashtray
TTITLE4=Stranger in my arms
TTITLE5=I love you honey
TTITLE6=A church, a courtroom and then goodbye
TTITLE7=I'm moving along
TTITLE8=Finger prints
TTITLE9=I cried all the way to the altar
TTITLE10=Just a closer walk with thee
TTITLE11=Poor man's roses or a rich man's gold
TTITLE12=Stop the world (and let me off)
TTITLE13=Just out of reach
TTITLE14=I can see an angel walkin'
TTITLE15=If I could only stay asleep
TTITLE16=I'm blue again
TTITLE17=I've loved and lost again
TTITLE18=Let the teardrops fall
TTITLE19=Love, love, love me honey
EXTD=A greates hits type collection released in 2000
EXTT0=
EXTT1=
EXTT2=
EXTT3=
EXTT4=
EXTT5=
EXTT6=
EXTT7=
EXTT8=
EXTT9=
EXTT10=
EXTT11=
EXTT12=
EXTT13=
EXTT14=
EXTT15=
EXTT16=
EXTT17=
EXTT18=
EXTT19=
PLAYORDER=
